HIERARCHY
ROOT Hips
{
	OFFSET -14.64140 90.27770 -84.91600
	CHANNELS 6 Xposition Yposition Zposition Zrotation Xrotation Yrotation
	JOINT Spine
	{
		OFFSET 0.00000 13.20850 -1.60436
		CHANNELS 3 Zrotation Xrotation Yrotation
		JOINT Spine1
		{
			OFFSET 0.00000 8.61716 0.00000
			CHANNELS 3 Zrotation Xrotation Yrotation
			JOINT Spine2
			{
				OFFSET 0.00000 8.61717 0.00000
				CHANNELS 3 Zrotation Xrotation Yrotation
				JOINT Spine3
				{
					OFFSET 0.00000 8.61717 0.00000
					CHANNELS 3 Zrotation Xrotation Yrotation
					JOINT Neck
					{
						OFFSET 0.00000 11.07920 1.10792
						CHANNELS 3 Zrotation Xrotation Yrotation
						JOINT Neck1
						{
							OFFSET 0.00000 7.08032 0.00000
							CHANNELS 3 Zrotation Xrotation Yrotation
							JOINT Head
							{
								OFFSET 0.00000 7.08031 0.00000
								CHANNELS 3 Zrotation Xrotation Yrotation
								End site
								{
									OFFSET 0.00000 0.00000 0.00000
								}
							}
						}
					}
					JOINT RightShoulder
					{
						OFFSET -0.01000 7.91373 5.19711
						CHANNELS 3 Zrotation Xrotation Yrotation
						JOINT RightArm
						{
							OFFSET -18.41580 0.00000 0.00000
							CHANNELS 3 Zrotation Xrotation Yrotation
							JOINT RightForeArm
							{
								OFFSET -29.11090 0.00000 0.00000
								CHANNELS 3 Zrotation Xrotation Yrotation
								JOINT RightHand
								{
									OFFSET -24.65040 0.00000 0.00000
									CHANNELS 3 Zrotation Xrotation Yrotation
									JOINT RightHandThumb1
									{
										OFFSET -5.35114 -0.85590 3.97906
										CHANNELS 3 Zrotation Xrotation Yrotation
										JOINT RightHandThumb2
										{
											OFFSET -4.52789 0.00000 0.00000
											CHANNELS 3 Zrotation Xrotation Yrotation
											JOINT RightHandThumb3
											{
												OFFSET -2.46976 0.00000 0.00000
												CHANNELS 3 Zrotation Xrotation Yrotation
												End site
												{
													OFFSET 0.00000 0.00000 0.00000
												}
											}
										}
									}
									JOINT RightHandIndex1
									{
										OFFSET -14.26970 0.00000 2.88139
										CHANNELS 3 Zrotation Xrotation Yrotation
										JOINT RightHandIndex2
										{
											OFFSET -5.48836 0.00000 0.00000
											CHANNELS 3 Zrotation Xrotation Yrotation
											JOINT RightHandIndex3
											{
												OFFSET -3.01859 0.00000 0.00000
												CHANNELS 3 Zrotation Xrotation Yrotation
												End site
												{
													OFFSET 0.00000 0.00000 0.00000
												}
											}
										}
									}
									JOINT RightHandMiddle1
									{
										OFFSET -14.26970 0.00000 -0.09147
										CHANNELS 3 Zrotation Xrotation Yrotation
										JOINT RightHandMiddle2
										{
											OFFSET -6.17441 0.00000 0.00000
											CHANNELS 3 Zrotation Xrotation Yrotation
											JOINT RightHandMiddle3
											{
												OFFSET -3.56743 0.00000 0.00000
												CHANNELS 3 Zrotation Xrotation Yrotation
												End site
												{
													OFFSET 0.00000 0.00000 0.00000
												}
											}
										}
									}
									JOINT RightHandRing1
									{
										OFFSET -12.69180 0.00000 -3.06433
										CHANNELS 3 Zrotation Xrotation Yrotation
										JOINT RightHandRing2
										{
											OFFSET -5.62556 0.00000 0.00000
											CHANNELS 3 Zrotation Xrotation Yrotation
											JOINT RightHandRing3
											{
												OFFSET -3.56744 0.00000 0.00000
												CHANNELS 3 Zrotation Xrotation Yrotation
												End site
												{
													OFFSET 0.00000 0.00000 0.00000
												}
											}
										}
									}
									JOINT RightHandPinky1
									{
										OFFSET -11.11390 0.00000 -6.03719
										CHANNELS 3 Zrotation Xrotation Yrotation
										JOINT RightHandPinky2
										{
											OFFSET -4.52789 0.00000 0.00000
											CHANNELS 3 Zrotation Xrotation Yrotation
											JOINT RightHandPinky3
											{
												OFFSET -2.46976 0.00000 0.00000
												CHANNELS 3 Zrotation Xrotation Yrotation
												End site
												{
													OFFSET 0.00000 0.00000 0.00000
												}
											}
										}
									}
								}
							}
						}
					}
					JOINT LeftShoulder
					{
						OFFSET 0.01000 7.91373 5.19711
						CHANNELS 3 Zrotation Xrotation Yrotation
						JOINT LeftArm
						{
							OFFSET 18.41580 0.00000 0.00000
							CHANNELS 3 Zrotation Xrotation Yrotation
							JOINT LeftForeArm
							{
								OFFSET 29.11090 0.00000 0.00000
								CHANNELS 3 Zrotation Xrotation Yrotation
								JOINT LeftHand
								{
									OFFSET 24.65040 0.00000 0.00000
									CHANNELS 3 Zrotation Xrotation Yrotation
									JOINT LeftHandThumb1
									{
										OFFSET 5.35114 -0.85590 3.97906
										CHANNELS 3 Zrotation Xrotation Yrotation
										JOINT LeftHandThumb2
										{
											OFFSET 4.52789 0.00000 0.00000
											CHANNELS 3 Zrotation Xrotation Yrotation
											JOINT LeftHandThumb3
											{
												OFFSET 2.46977 0.00000 0.00000
												CHANNELS 3 Zrotation Xrotation Yrotation
												End site
												{
													OFFSET 0.00000 0.00000 0.00000
												}
											}
										}
									}
									JOINT LeftHandIndex1
									{
										OFFSET 14.26970 0.00000 2.88139
										CHANNELS 3 Zrotation Xrotation Yrotation
										JOINT LeftHandIndex2
										{
											OFFSET 5.48836 0.00000 0.00000
											CHANNELS 3 Zrotation Xrotation Yrotation
											JOINT LeftHandIndex3
											{
												OFFSET 3.01859 0.00000 0.00000
												CHANNELS 3 Zrotation Xrotation Yrotation
												End site
												{
													OFFSET 0.00000 0.00000 0.00000
												}
											}
										}
									}
									JOINT LeftHandMiddle1
									{
										OFFSET 14.26970 0.00000 -0.09147
										CHANNELS 3 Zrotation Xrotation Yrotation
										JOINT LeftHandMiddle2
										{
											OFFSET 6.17440 0.00000 0.00000
											CHANNELS 3 Zrotation Xrotation Yrotation
											JOINT LeftHandMiddle3
											{
												OFFSET 3.56744 0.00000 0.00000
												CHANNELS 3 Zrotation Xrotation Yrotation
												End site
												{
													OFFSET 0.00000 0.00000 0.00000
												}
											}
										}
									}
									JOINT LeftHandRing1
									{
										OFFSET 12.69180 0.00000 -3.06433
										CHANNELS 3 Zrotation Xrotation Yrotation
										JOINT LeftHandRing2
										{
											OFFSET 5.62556 0.00000 0.00000
											CHANNELS 3 Zrotation Xrotation Yrotation
											JOINT LeftHandRing3
											{
												OFFSET 3.56744 0.00000 0.00000
												CHANNELS 3 Zrotation Xrotation Yrotation
												End site
												{
													OFFSET 0.00000 0.00000 0.00000
												}
											}
										}
									}
									JOINT LeftHandPinky1
									{
										OFFSET 11.11390 0.00000 -6.03719
										CHANNELS 3 Zrotation Xrotation Yrotation
										JOINT LeftHandPinky2
										{
											OFFSET 4.52789 0.00000 0.00000
											CHANNELS 3 Zrotation Xrotation Yrotation
											JOINT LeftHandPinky3
											{
												OFFSET 2.46976 0.00000 0.00000
												CHANNELS 3 Zrotation Xrotation Yrotation
												End site
												{
													OFFSET 0.00000 0.00000 0.00000
												}
											}
										}
									}
								}
							}
						}
					}
					JOINT pCube4
					{
						OFFSET 0.00000 10.91090 1.10792
						CHANNELS 3 Zrotation Xrotation Yrotation
						End site
						{
							OFFSET 0.00000 0.00000 0.00000
						}
					}
				}
			}
		}
	}
	JOINT RightUpLeg
	{
		OFFSET -9.98441 0.00000 0.00000
		CHANNELS 3 Zrotation Xrotation Yrotation
		JOINT RightLeg
		{
			OFFSET 0.00000 -42.11790 0.00000
			CHANNELS 3 Zrotation Xrotation Yrotation
			JOINT RightFoot
			{
				OFFSET 0.00000 -45.00020 -0.00001
				CHANNELS 3 Zrotation Xrotation Yrotation
				JOINT RightForeFoot
				{
					OFFSET 0.00000 -3.74820 0.00000
					CHANNELS 3 Zrotation Xrotation Yrotation
					JOINT RightToeBase
					{
						OFFSET 0.00000 0.06325 14.43120
						CHANNELS 3 Zrotation Xrotation Yrotation
						End site
						{
							OFFSET 0.00000 0.00000 0.00000
						}
					}
				}
			}
		}
	}
	JOINT LeftUpLeg
	{
		OFFSET 9.98441 0.00000 0.00000
		CHANNELS 3 Zrotation Xrotation Yrotation
		JOINT LeftLeg
		{
			OFFSET 0.00000 -42.11800 0.00000
			CHANNELS 3 Zrotation Xrotation Yrotation
			JOINT LeftFoot
			{
				OFFSET 0.00000 -45.00070 0.00000
				CHANNELS 3 Zrotation Xrotation Yrotation
				JOINT LeftForeFoot
				{
					OFFSET 0.00000 -3.74824 0.00000
					CHANNELS 3 Zrotation Xrotation Yrotation
					JOINT LeftToeBase
					{
						OFFSET 0.00000 0.06325 14.43110
						CHANNELS 3 Zrotation Xrotation Yrotation
						End site
						{
							OFFSET 0.00000 0.00000 0.00000
						}
					}
				}
			}
		}
	}
}
MOTION
Frames: 4
Frame Time: 0.050000
0.007824322600140552 -0.017277302669433295 0.01858883222963728 0.007978247169503851 0.008564649512460724 -0.01595171459800625 5.953048936629052 5.206917309560898 -2.2924345898452008 -0.7631617092143742 3.6320915351897525 0.38580225966149195 -0.2938932053526224 -0.9206593573597736 -0.20069299565439616 -1.2602396058765928 -0.5206909009118115 -0.2616552127352238 -1.4347673885848788 13.186408709672294 2.461177994987965 0.24902480287057785 -1.1342927882811733 7.999001616098896 -0.42519041745303343 -18.329691759916034 0.664961431387584 -10.8602161989329 3.934644688324783 -18.29681204526989 85.0931829953287 -8.351747455800341 -0.27105712713318103 28.1717686269381 6.077838976156716 82.64239620619813 9.139581916806929 -0.5101182043970148 -4.589359574258867 4.4797746307758075 -0.09604760567715134 -1.6294551922852338 -0.03219582412981202 -0.01253307920139854 -56.214875565450356 -0.004296059287674564 -0.029731915458185793 -56.27701666264484 -38.77382848069001 -0.034496731723921564 -0.0359426399424436 -0.006205479332862657 -0.02202886880019374 -0.02361609975771136 -0.013571140846697766 0.01862962171929947 0.012777690037422776 -36.672904509308324 -0.04607454959349461 0.032447911070365765 -0.04547450316274481 0.004948481368613105 -0.006670822785372091 -0.03566420960676655 -0.013573568851605926 0.03307566622754459 -19.753248384254082 -0.008996031967022198 0.034797648098399254 -0.0015495038732532757 0.0010096751060052437 0.024992617488720538 0.02158491598814635 0.001583095677140704 0.007489851408432574 24.0206662457302 -0.017096865244106477 -0.04775588816325934 28.907743377117047 -0.0285413032640446 0.025372290388607867 28.846705896746176 0.0019034028322351436 0.04825533182917617 13.654105529927996 3.1137741130809085 14.809294512040855 -77.53239431533429 12.82085162859944 -19.84314583763761 -28.366114694629477 15.707186084476469 -70.3433844779308 -24.578385089052723 -4.157490907412359 3.3877002027738676 -0.44046478090495755 0.06870758945209514 -8.078048736986602 0.02653402588583056 0.044181401893289264 44.54762627897595 -0.021199710787577458 0.018920891956938156 44.61415891575947 12.499731497750517 0.02618090989716496 0.007398636297717553 0.0010283062969248583 -0.0340419282343544 -0.006798235672336626 -0.02161112739796871 0.03926411323413948 -0.007688884863754205 11.09491016946722 0.025717806777574608 0.04310700913667309 0.02600603711906236 -0.030484977394033955 -0.021411117179467157 -0.04071896171004963 -0.0031819447414298614 0.03439511326239529 4.8130419874812835 -0.01725749058095419 0.03206199754097631 -0.01667855347711919 0.010724879603715806 -0.041981519282041586 -0.01012618245767543 -0.013678512023341676 0.008928785203952704 -5.599444588358409 -0.00350179038487471 0.006192868220359332 -6.7241722630733545 0.042436134266967136 -0.045102013964335275 -6.715110004719179 -0.02361215688551566 0.044867650661335114 0.012494462428408688 -0.002481313362022229 0.0027124009228886945 8.016170144161679 3.530290990290099 -19.22758313253693 0.015272946565744634 10.348646832212312 0.02882855026241073 -5.625398901859527 -15.642976382027602 3.203259621394858 -0.00894826003435233 -0.01297847922948124 -0.04782319841882872 0.0438054558885668 4.676070016086726 0.032118891724986755 12.415858163291528 -8.218755571223433 6.834884764893954 0.025907772327098295 46.380090448109 -0.021856523923870528 -4.315383801079624 -14.729850874276568 -3.8497294423376895 0.04665221462200679 0.040436469225592166 -0.006518745835693008 -0.0039401013591574075 -10.769455707205516 0.04102684528191725 
-0.029967076681421102 -0.007579063079441697 0.03139246025819183 0.04106562695598254 0.017622750853806598 0.021945222907677905 5.788458007053266 5.18676725643104 -2.2958148372414775 -0.7406532766937671 3.6389850187183255 0.31809454833930406 -0.2818072255352166 -0.8990280022874398 -0.26468676771374267 -1.1753694798779923 -0.4482000505060451 -0.3259151588471577 -1.3409854380216333 12.880584842689085 2.26632318586755 0.29504675326682184 -1.1659644831208167 7.40883264053857 -0.3450595945249765 -18.37587796651526 0.6234787940668007 -10.505652095601839 3.836008031471568 -18.231951006765332 85.19074528819252 -7.867575306483151 -0.9688700989365624 27.790971666456517 6.97111097637314 81.56365792199243 8.778865630577595 -0.511052703174147 -4.473791975309546 4.501446093981246 -0.1455395808362185 -1.5853380686065475 -0.03691250168966104 -0.022969893296268168 -56.24817404524198 0.04193630043638301 -0.03823760863387426 -56.185449800735434 -38.750489571502946 0.04734238869475825 0.04786964682316943 0.047880397471460015 -0.009074292300892123 -0.04000689406829228 -0.007073873765747566 0.011747254257330692 -0.0453514407275058 -36.737470024168616 -0.025157972029494782 -0.02394442770549693 -0.0417239879517589 0.023266908223191104 -0.003677805218628889 -0.001466142623209084 -0.04323278074310094 -0.018612283696908146 -19.714389431524836 0.034817883861696236 0.02564829208076572 0.032729700980617026 -0.02657260818975168 0.04665577790677081 0.029099481827587627 -0.006533897670156143 -0.04654673248967474 24.053249808297913 -0.023714461711869073 -0.01911672780416489 28.903633451839074 -0.03768836489569906 0.018427076626883098 28.87758469279141 -0.03748329216945334 0.01974327176906179 13.267582089254764 3.0910057482922038 14.583923990733737 -77.14885090098964 14.016939773722331 -19.311120094117445 -26.147068443353277 16.661991270588967 -68.38804027117465 -24.722309992922114 -4.189872533520821 3.5404999029377557 -0.5105332381582632 0.11556433281880785 -8.112740292184792 -0.022799821876044644 0.026744611077403627 44.54522972627693 0.02417031088884517 0.03385057370932923 44.531274158247236 12.42618637530158 -0.025960325193933924 0.0015918977099434388 -0.0031549667356369836 0.010377896950077256 -0.007090683432281505 0.03934831196904543 -0.005465828551066103 0.022468822368570396 11.069527494652174 0.025604365523546523 0.023937401247769458 0.04175034503995746 -0.026038558917965474 0.04411062613768091 -0.0412260032321545 0.03350023839852629 0.011546085581680797 4.770061070387807 -0.042172829383358236 0.035644527348652845 -0.026484427363533444 0.027389359227925916 -0.014635355016804274 0.02262280902381221 -0.023037257052148975 -0.009330827389545777 -5.599401125608027 0.03489709166530258 -0.01286461179397158 -6.67275434084826 0.016531694131715235 -0.023262674604891617 -6.7409871627588185 -0.014423833678530862 0.005404602305567561 0.02220820295109031 -0.027832974858245187 -0.005981297014191394 8.090464670407504 3.4584513385787776 -19.251038565049964 0.02747846522227381 10.370717156849292 -0.025692633003688358 -5.584154554458451 -15.687155431148389 3.193802430573285 0.035693352999395155 -0.009882205334755161 0.014891002157314112 0.03193627965077514 4.740640045867772 -0.02564519542273205 12.455384950178072 -8.189637009836636 6.873930667309182 -0.015958819573152292 46.39732621141536 -0.046833192062921844 -4.2938650893672285 -14.728504384901546 -3.868800486277533 0.031122660003074322 -0.003845849368542156 0.017256748493969642 0.030887539239429235 -10.76581451673338 0.0033532932858952287 
0.006439966525334896 -0.04087944503600885 -0.006800542268203636 -0.018797924668010495 0.02956278596429354 -0.010599809116300792 5.467796680872401 5.276981058595971 -2.165266985417683 -0.7839478506460048 3.637400161051081 0.3713266129913544 -0.33875452017194124 -0.8249214309043224 -0.33303998182628003 -1.1363118113673598 -0.42403312374119334 -0.33846733270285817 -1.2762467986677835 12.597897293958285 1.9786879623069566 0.28540304200937844 -1.2498253708736484 6.544166431040986 -0.21047824615234093 -18.38731746623107 0.5583221094127894 -10.198357664430667 3.8166793430890102 -18.021531226160924 85.05999671727378 -7.0991409440606725 -1.6314253653125557 26.55887096797973 8.30121352951388 80.2530108831171 8.554711584182566 -0.4512795416345131 -4.370772853689631 4.557821127221717 -0.09035444977552845 -1.6195480081776836 0.043835164106192114 0.029369202320544126 -56.230642766995956 -0.0012960248232041984 0.007279445046425181 -56.185291941380065 -38.79998336882183 -0.015337249524406687 -0.025967132648228995 -0.000584244384339157 -0.014172312531093542 -0.04185032422421937 -0.03074542730092205 -0.014860269472151256 -0.00994401588179676 -36.70730550074636 -0.0008712637163530843 0.006513162275967384 -0.03441587039309103 -0.03626621602835805 0.013145248356430756 -0.0047348626064231646 -0.0008204668768684006 0.049694360764109 -19.777567677803205 -0.007819129251840102 -0.022687545198526102 -0.022146176934059777 0.03693179881053872 -0.00031963793314748984 0.011130735452646796 -0.04536393119667071 -0.03388384360549499 24.081814323197783 -0.028987177741648128 0.01642559638760559 28.899443228002536 0.024630534278978367 -0.005686752162358716 28.875869011500704 0.005997553154609368 0.021285481605675834 12.78074849708506 2.9583924003185347 14.46961373788984 -76.65828029488033 14.96714452569929 -18.474777125760266 -22.534713676572924 17.578422345375277 -65.06547791434659 -24.62465761291338 -3.9180874215057635 3.607764867738313 -0.5050702866416285 0.031066190835433 -8.123276878372177 0.03855553967925502 -0.025307452372443733 44.55648357145713 0.03364644002004566 -0.045258160221471104 44.594917938817574 12.440054267097938 0.018743010859272467 -0.019691803896605305 0.041938740798063555 -0.03531557540831528 6.509332332940707e-05 0.04382612674264337 0.0434229038387924 0.008905391123337525 11.11920720091575 -0.02850602159889875 -0.048218988094295735 0.021245396168720777 0.03574079135334687 0.036359103980302454 0.033987542329370186 -0.044098327086109196 0.04163467307350055 4.780840254572908 -0.022816715576369894 0.04106448371915392 -0.0065312350958483464 -0.03603733819658859 -0.010429166540943158 0.023916884535758267 -0.03739971754243481 0.02459289446457008 -5.604890959697236 0.03662241396357422 -0.04409298509252758 -6.727018244504272 0.0010458838022557792 0.047869707067816715 -6.71603527474384 -0.039378782622700996 -0.008319074983163983 -0.02224604826316497 0.01398602958340724 -0.039587620195178 8.022897941198364 3.521940259236054 -19.2599916063816 -0.04530921026326852 10.382818963511626 -0.019756053941532865 -5.57345759795629 -15.6113345266866 3.1691022745935906 -0.04107542893475456 0.0005053345431764722 -0.013916656901939462 -0.027331754738513164 4.6833691596911375 -0.020047974897246707 12.448736836546992 -8.282660562054843 6.869209849793532 0.03623262927768079 46.36488959062888 0.025538818497081776 -4.304437394705977 -14.741606896624614 -3.8115002352718808 0.021832630523873877 -0.04435391400350305 -0.026825724953364702 0.00985925376380351 -10.765291376578729 -0.046905342464375 
0.03819662887938364 -0.027595552278582177 0.044434974807186126 -0.022979948929670806 -0.001175900498241993 -0.03618590459000046 5.134656175312368 5.333893295772123 -2.1490690517098945 -0.8126199635639931 3.610378866216115 0.3586428721299653 -0.3677484878404387 -0.7692527248663743 -0.30835235970059177 -1.14629912775414 -0.4118773298128592 -0.38873502818582367 -1.149320365870251 12.398441194379998 1.7365019139951248 0.24270764237774853 -1.305102438778793 5.941031655176591 -0.15217666315824663 -18.490316994217057 0.4174505778050931 -9.85854126969919 3.702182288287586 -17.90138673561152 84.77926944143049 -5.8924548874900635 -2.3577526167800844 24.0341852284917 9.871757491937123 77.92536621816755 8.517697625357599 -0.3934661515160796 -3.9943373386279992 4.504629561344947 -0.08650683783040533 -1.5843888026435957 0.016655293602644314 0.029127359306245174 -56.210665813222015 0.04233168891533188 0.0456537805568934 -56.201535269789595 -38.79032146429535 0.015558535568652783 0.025211045937385643 0.01700001946059354 0.007958784035847983 -0.011274848250207872 0.0009674550624778434 0.03731498019496041 -0.0196455471089307 -36.657739944243446 -0.03517276961956052 0.009610974222101937 0.048931448254883325 0.01093390045530111 -0.0031359904111469624 -0.012516829850723306 -0.04481205377478828 0.03374307981766834 -19.738576624832238 -0.04566068960488451 0.03137185887155915 -0.02183322846799492 -0.00806212960330991 0.010563932728214284 0.013612663772715366 -0.008596114590507544 0.022606785747326972 24.103384429680116 0.027567445389219413 0.002040210436787187 28.81693332829161 -0.0008292757118522057 0.016845259645556974 28.86703567962277 0.01358981303436054 -0.03222151368835158 12.294123450538642 2.9269427888889865 14.318727592822095 -75.75711646347376 15.867168920838616 -17.710170141139315 -18.326878348437013 18.73982628792732 -61.55963158618749 -24.65686005939902 -3.7188912655632325 3.7960379893344567 -0.4666832722437712 0.07706236700045271 -8.109819281140476 -0.031377531134397015 0.03390583354997769 44.60015673177822 0.01885882280035502 -0.03310230795929455 44.565393127986425 12.445619133133752 0.02785281641158142 -0.03845556430311709 -0.003946524760629089 0.034762933876362256 -0.002187789401467035 -0.029806644906618475 0.04770570701890934 -0.03040734274300952 11.063185282955349 0.03994093612589714 0.03311092853527802 0.011232282429922781 0.019587565414701438 -0.01234547636991179 0.03151637499198105 0.0345813190805962 -0.027426871922258646 4.801514128200041 0.012651350218600702 -0.03081123190142674 -0.010613736342454307 0.01370759561274976 0.005182699925917325 0.03952223434462827 0.018531766076950583 0.010963229295793128 -5.5697295124031205 -0.022938422146794535 0.005708125455017439 -6.687863030122115 0.03943478365703096 0.027218485725252477 -6.72739753233727 -0.0160572994310452 0.02059295523395631 -0.0034235057324320446 0.030212585840697616 -0.010826373601409282 8.046642484176692 3.4788310239580262 -19.25949387448301 -0.028308656372056477 10.366756609940946 -0.01149401187688074 -5.58164454802849 -15.70169687194341 3.16102759169307 0.04520447726534591 -0.021849580430532988 -0.010732510409745743 -0.0034972212872700055 4.6647524723170095 -0.0485485040033356 12.468544547416712 -8.191454204745945 6.917075634585453 -0.00015220624775551413 46.39583365004793 -0.0035831087641825937 -4.282104487305034 -14.744761153121512 -3.8069072158494133 -0.008657436774304035 -0.011757206170656183 -0.03161105412889851 -0.013433171638785728 -10.734160254279555 0.03216965783258184 
